<svg width="16" height="16" viewBox="0 0 16 16" fill="none" xmlns="http://www.w3.org/2000/svg">
<path d="M12 1.33337H4C2.89333 1.33337 2 2.22004 2 3.31337V10.5867C2 11.68 2.89333 12.5667 4 12.5667H4.50667C5.04 12.5667 5.54667 12.7734 5.92 13.1467L7.06 14.2734C7.58 14.7867 8.42667 14.7867 8.94667 14.2734L10.0867 13.1467C10.46 12.7734 10.9733 12.5667 11.5 12.5667H12C13.1067 12.5667 14 11.68 14 10.5867V3.31337C14 2.22004 13.1067 1.33337 12 1.33337ZM6.92 8.67337C7.19333 8.67337 7.42 8.90004 7.42 9.17337C7.42 9.44671 7.19333 9.67337 6.92 9.67337H5.13333C4.84 9.67337 4.56667 9.53337 4.39333 9.29337C4.22667 9.06671 4.18667 8.78671 4.26667 8.52004C4.5 7.80671 5.07333 7.42004 5.58 7.07337C6.11333 6.71337 6.41333 6.48671 6.41333 6.10004C6.41333 5.75337 6.13333 5.47337 5.78667 5.47337C5.44 5.47337 5.16667 5.76004 5.16667 6.10671C5.16667 6.38004 4.94 6.60671 4.66667 6.60671C4.39333 6.60671 4.16667 6.38004 4.16667 6.10671C4.16667 5.21337 4.89333 4.48004 5.79333 4.48004C6.69333 4.48004 7.42 5.20671 7.42 6.10671C7.42 7.04671 6.71333 7.52671 6.14667 7.91337C5.79333 8.15337 5.46 8.38004 5.29333 8.68004H6.92V8.67337ZM11.3333 8.72004H11.1933V9.18004C11.1933 9.45337 10.9667 9.68004 10.6933 9.68004C10.42 9.68004 10.1933 9.45337 10.1933 9.18004V8.72004H8.88667C8.88667 8.72004 8.88667 8.72004 8.88 8.72004C8.55333 8.72004 8.25333 8.54671 8.08667 8.26671C7.92 7.98004 7.92 7.62671 8.08667 7.34671C8.54 6.56671 9.06667 5.68004 9.54667 4.90671C9.76 4.56671 10.1667 4.41337 10.5467 4.52004C10.9267 4.63337 11.1933 4.98004 11.1867 5.38004V7.72671H11.3333C11.6067 7.72671 11.8333 7.95337 11.8333 8.22671C11.8333 8.50004 11.6067 8.72004 11.3333 8.72004Z" fill="#1C1C22"/>
<path d="M10.1935 7.72001V5.76001C9.80019 6.40001 9.39352 7.08668 9.02686 7.71334H10.1935V7.72001Z" fill="#1C1C22"/>
</svg>
