<svg width="16" height="16" viewBox="0 0 16 16" fill="none" xmlns="http://www.w3.org/2000/svg">
<path d="M10.5202 1.33337H5.48016C2.96016 1.33337 2.3335 2.00671 2.3335 4.69337V12.2C2.3335 13.9734 3.30683 14.3934 4.48683 13.1267L4.4935 13.12C5.04016 12.54 5.8735 12.5867 6.34683 13.22L7.02016 14.12C7.56016 14.8334 8.4335 14.8334 8.9735 14.12L9.64683 13.22C10.1268 12.58 10.9602 12.5334 11.5068 13.12C12.6935 14.3867 13.6602 13.9667 13.6602 12.1934V4.69337C13.6668 2.00671 13.0402 1.33337 10.5202 1.33337ZM10.0002 7.83337H6.00016C5.72683 7.83337 5.50016 7.60671 5.50016 7.33337C5.50016 7.06004 5.72683 6.83337 6.00016 6.83337H10.0002C10.2735 6.83337 10.5002 7.06004 10.5002 7.33337C10.5002 7.60671 10.2735 7.83337 10.0002 7.83337ZM10.6668 5.16671H5.3335C5.06016 5.16671 4.8335 4.94004 4.8335 4.66671C4.8335 4.39337 5.06016 4.16671 5.3335 4.16671H10.6668C10.9402 4.16671 11.1668 4.39337 11.1668 4.66671C11.1668 4.94004 10.9402 5.16671 10.6668 5.16671Z" fill="#1C1C22"/>
</svg>
