<svg width="16" height="16" viewBox="0 0 16 16" fill="none" xmlns="http://www.w3.org/2000/svg">
<path fill-rule="evenodd" clip-rule="evenodd" d="M12.3219 13.1934L12.3223 13.1922L12.3339 13.1632L14.3331 3.08387V3.05113C14.3331 2.8 14.2403 2.58076 14.0384 2.44925C13.8617 2.33414 13.6585 2.32594 13.516 2.33676C13.3654 2.34819 13.2233 2.3858 13.1249 2.41711C13.0743 2.43322 13.032 2.44874 13.0017 2.46047C12.9865 2.46637 12.9742 2.47136 12.9652 2.47509L12.9564 2.47879L1.80985 6.85142L1.80678 6.85252C1.80076 6.85471 1.7928 6.85768 1.78318 6.86142C1.76401 6.86888 1.73792 6.87956 1.70727 6.89345C1.64708 6.92073 1.56392 6.96283 1.47959 7.02058C1.33635 7.11867 1.06361 7.35088 1.10967 7.71903C1.14781 8.02397 1.35801 8.21764 1.49973 8.31791C1.57569 8.37166 1.64837 8.41042 1.70159 8.43575C1.72855 8.44859 1.75146 8.45842 1.76852 8.46537C1.77707 8.46885 1.78422 8.47164 1.78975 8.47374L1.79684 8.47638L1.80136 8.47806L3.75152 9.1346C3.74494 9.25695 3.75708 9.38171 3.78953 9.5048L4.76638 13.2104C4.88221 13.6498 5.27969 13.9558 5.73407 13.9555C6.14136 13.9552 6.50257 13.7088 6.65603 13.3412L8.18115 11.7105L10.8005 13.7186L10.8377 13.7349C11.0757 13.8387 11.298 13.8716 11.5013 13.8439C11.7043 13.8161 11.8656 13.731 11.9868 13.6341C12.106 13.5387 12.1878 13.431 12.2392 13.3499C12.2653 13.3088 12.2847 13.2726 12.2982 13.2453C12.305 13.2316 12.3104 13.2201 12.3144 13.211L12.3194 13.1994L12.3212 13.1951L12.3219 13.1934ZM4.75646 9.24989C4.73426 9.16567 4.76911 9.07676 4.84264 9.03007L11.4573 4.82946C11.4573 4.82946 11.8464 4.59327 11.8325 4.82946C11.8325 4.82946 11.9019 4.87118 11.6934 5.06566C11.4957 5.25038 6.97897 9.61108 6.52194 10.0523C6.49556 10.0778 6.47982 10.107 6.47052 10.1425L5.73331 12.9555L4.75646 9.24989Z" fill="#1C1C22"/>
</svg>
