<svg width="16" height="16" viewBox="0 0 16 16" fill="none" xmlns="http://www.w3.org/2000/svg">
<path d="M8.00021 3.1001C4.81355 3.1001 2.22021 5.69343 2.22021 8.8801C2.22021 12.0668 4.81355 14.6668 8.00021 14.6668C11.1869 14.6668 13.7802 12.0734 13.7802 8.88676C13.7802 5.7001 11.1869 3.1001 8.00021 3.1001ZM8.50021 8.66676C8.50021 8.9401 8.27355 9.16676 8.00021 9.16676C7.72688 9.16676 7.50021 8.9401 7.50021 8.66676V5.33343C7.50021 5.0601 7.72688 4.83343 8.00021 4.83343C8.27355 4.83343 8.50021 5.0601 8.50021 5.33343V8.66676Z" fill="#1C1C22"/>
<path d="M9.92659 2.29992H6.07326C5.80659 2.29992 5.59326 2.08659 5.59326 1.81992C5.59326 1.55325 5.80659 1.33325 6.07326 1.33325H9.92659C10.1933 1.33325 10.4066 1.54659 10.4066 1.81325C10.4066 2.07992 10.1933 2.29992 9.92659 2.29992Z" fill="#1C1C22"/>
</svg>
