<svg width="16" height="16" viewBox="0 0 16 16" fill="none" xmlns="http://www.w3.org/2000/svg">
<path d="M5.10004 13.94C5.08004 13.94 5.05337 13.9533 5.03337 13.9533C3.74004 13.3133 2.68671 12.2533 2.04004 10.96C2.04004 10.94 2.05337 10.9133 2.05337 10.8933C2.86671 11.1333 3.70671 11.3133 4.54004 11.4533C4.68671 12.2933 4.86004 13.1266 5.10004 13.94Z" fill="#1C1C22"/>
<path d="M13.9604 10.9666C13.3004 12.2933 12.2004 13.3666 10.8604 14.0133C11.1137 13.1666 11.327 12.3133 11.467 11.4533C12.307 11.3133 13.1337 11.1333 13.947 10.8933C13.9404 10.92 13.9604 10.9466 13.9604 10.9666Z" fill="#1C1C22"/>
<path d="M14.0137 5.13991C13.1737 4.88657 12.327 4.67991 11.467 4.53324C11.327 3.67324 11.1204 2.81991 10.8604 1.98657C12.2404 2.64657 13.3537 3.75991 14.0137 5.13991Z" fill="#1C1C22"/>
<path d="M5.10015 2.06004C4.86015 2.87337 4.68682 3.70004 4.54682 4.54004C3.68682 4.67337 2.83348 4.88671 1.98682 5.14004C2.63348 3.80004 3.70682 2.70004 5.03348 2.04004C5.05348 2.04004 5.08015 2.06004 5.10015 2.06004Z" fill="#1C1C22"/>
<path d="M10.3267 4.39325C8.78001 4.21992 7.22001 4.21992 5.67334 4.39325C5.84001 3.47992 6.05334 2.56659 6.35334 1.68659C6.36667 1.63325 6.36001 1.59325 6.36667 1.53992C6.89334 1.41325 7.43334 1.33325 8.00001 1.33325C8.56001 1.33325 9.10667 1.41325 9.62667 1.53992C9.63334 1.59325 9.63334 1.63325 9.64667 1.68659C9.94667 2.57325 10.16 3.47992 10.3267 4.39325Z" fill="#1C1C22"/>
<path d="M4.39301 10.3267C3.47301 10.16 2.56634 9.94667 1.68634 9.64667C1.63301 9.63334 1.59301 9.64001 1.53967 9.63334C1.41301 9.10667 1.33301 8.56667 1.33301 8.00001C1.33301 7.44001 1.41301 6.89334 1.53967 6.37334C1.59301 6.36667 1.63301 6.36667 1.68634 6.35334C2.57301 6.06001 3.47301 5.84001 4.39301 5.67334C4.22634 7.22001 4.22634 8.78001 4.39301 10.3267Z" fill="#1C1C22"/>
<path d="M14.6664 8.00001C14.6664 8.56667 14.5864 9.10667 14.4598 9.63334C14.4064 9.64001 14.3664 9.63334 14.3131 9.64667C13.4264 9.94001 12.5198 10.16 11.6064 10.3267C11.7798 8.78001 11.7798 7.22001 11.6064 5.67334C12.5198 5.84001 13.4331 6.05334 14.3131 6.35334C14.3664 6.36667 14.4064 6.37334 14.4598 6.37334C14.5864 6.90001 14.6664 7.44001 14.6664 8.00001Z" fill="#1C1C22"/>
<path d="M10.3267 11.6067C10.16 12.5267 9.94667 13.4334 9.64667 14.3134C9.63334 14.3667 9.63334 14.4067 9.62667 14.46C9.10667 14.5867 8.56001 14.6667 8.00001 14.6667C7.43334 14.6667 6.89334 14.5867 6.36667 14.46C6.36001 14.4067 6.36667 14.3667 6.35334 14.3134C6.06001 13.4267 5.84001 12.5267 5.67334 11.6067C6.44667 11.6934 7.22001 11.7534 8.00001 11.7534C8.78001 11.7534 9.56001 11.6934 10.3267 11.6067Z" fill="#1C1C22"/>
<path d="M10.5086 10.5088C8.84116 10.7192 7.15818 10.7192 5.49079 10.5088C5.28041 8.84141 5.28041 7.15843 5.49079 5.49103C7.15818 5.28066 8.84116 5.28066 10.5086 5.49103C10.7189 7.15843 10.7189 8.84141 10.5086 10.5088Z" fill="#1C1C22"/>
</svg>
