<svg width="16" height="16" viewBox="0 0 16 16" fill="none" xmlns="http://www.w3.org/2000/svg">
<path d="M8.5 10.6133H8.93333C9.36667 10.6133 9.72667 10.2267 9.72667 9.75998C9.72667 9.17998 9.52 9.06665 9.18 8.94665L8.50667 8.71332V10.6133H8.5Z" fill="#1C1C22"/>
<path d="M7.98021 1.26667C4.30021 1.28001 1.32021 4.27334 1.33354 7.95334C1.34687 11.6333 4.34021 14.6133 8.02021 14.6C11.7002 14.5867 14.6802 11.5933 14.6669 7.91334C14.6535 4.23334 11.6602 1.26001 7.98021 1.26667ZM9.50688 8.00001C10.0269 8.18001 10.7269 8.56667 10.7269 9.76001C10.7269 10.7867 9.92021 11.6133 8.93354 11.6133H8.50021V12C8.50021 12.2733 8.27354 12.5 8.00021 12.5C7.72687 12.5 7.50021 12.2733 7.50021 12V11.6133H7.26021C6.16687 11.6133 5.28021 10.6933 5.28021 9.56001C5.28021 9.28667 5.50687 9.06001 5.78021 9.06001C6.05354 9.06001 6.28021 9.28667 6.28021 9.56001C6.28021 10.14 6.72021 10.6133 7.26021 10.6133H7.50021V8.36001L6.49354 8.00001C5.97354 7.82001 5.27354 7.43334 5.27354 6.24001C5.27354 5.21334 6.08021 4.38667 7.06687 4.38667H7.50021V4.00001C7.50021 3.72667 7.72687 3.50001 8.00021 3.50001C8.27354 3.50001 8.50021 3.72667 8.50021 4.00001V4.38667H8.74021C9.83354 4.38667 10.7202 5.30667 10.7202 6.44001C10.7202 6.71334 10.4935 6.94001 10.2202 6.94001C9.94687 6.94001 9.72021 6.71334 9.72021 6.44001C9.72021 5.86001 9.28021 5.38667 8.74021 5.38667H8.50021V7.64001L9.50688 8.00001Z" fill="#1C1C22"/>
<path d="M6.27979 6.24666C6.27979 6.82666 6.48645 6.93999 6.82645 7.05999L7.49979 7.29332V5.38666H7.06645C6.63312 5.38666 6.27979 5.77332 6.27979 6.24666Z" fill="#1C1C22"/>
</svg>
