<svg width="16" height="16" viewBox="0 0 16 16" fill="none" xmlns="http://www.w3.org/2000/svg">
<path fill-rule="evenodd" clip-rule="evenodd" d="M7.9974 15.9987C12.4164 15.9987 15.9987 12.4164 15.9987 7.9974C15.9987 3.5784 12.4164 -0.00390625 7.9974 -0.00390625C3.5784 -0.00390625 -0.00390625 3.5784 -0.00390625 7.9974C-0.00390625 12.4164 3.5784 15.9987 7.9974 15.9987ZM6.21732 9.64875L6.23216 9.59701H6.20582L6.21732 9.64875ZM6.70043 11.2682L7.17127 9.59701H8.82982L9.29306 11.2682C9.4376 11.7371 10.3221 11.6839 10.4288 11.2682L10.8383 9.59701H11.5973C11.8183 9.59701 11.9974 9.41789 11.9974 9.19694C11.9974 8.97599 11.8183 8.79688 11.5973 8.79688H11.0344L11.8276 5.56025C11.914 5.20756 11.647 4.86719 11.2838 4.86719C11.021 4.86719 10.7935 5.05006 10.7371 5.30677L9.96959 8.79688H9.52873L8.47939 5.18626C8.36189 4.77065 7.62913 4.77653 7.49727 5.18626L6.46166 8.79688H6.02807L5.25218 5.30422C5.19546 5.04887 4.96898 4.86719 4.70741 4.86719C4.34543 4.86719 4.07924 5.20648 4.1654 5.55806L4.95908 8.79688H4.39616C4.17521 8.79688 3.99609 8.97599 3.99609 9.19694C3.99609 9.41789 4.17521 9.59701 4.39616 9.59701H5.15516L5.5647 11.2682C5.67449 11.7089 6.60589 11.7121 6.70043 11.2682ZM7.39668 8.79688H8.60804L8.00728 6.62954L7.39668 8.79688ZM9.77969 9.66042L9.76126 9.59701H9.79364L9.77969 9.66042Z" fill="#1C1C22"/>
</svg>
